<svg id="Capa_1" enable-background="new 0 0 468 468" height="512" viewBox="0 0 468 468" width="512" xmlns="http://www.w3.org/2000/svg"><path style="fill:#65c9ff;" d="m468 110.92v-64.654c0-21.499-16.8-39.266-37.452-39.266h-393.1c-20.648 0-37.448 17.767-37.448 39.266v316.916c0 21.499 16.8 38.818 37.448 38.818h74.128l28.378 28.406c2.18 2.199 5.675 2.378 8.068.414l21.7-17.968c10.53 6.387 21.937 11.2 33.86 14.284l2.728 28.3c.286 3.103 2.854 5.497 5.969 5.564h43.821c3.115-.063 5.687-2.456 5.972-5.559l2.729-28.226c11.955-3.022 23.385-7.835 33.9-14.276l21.659 17.942c2.408 1.947 5.901 1.744 8.068-.467l28.372-28.414h73.747c20.653 0 37.453-17.319 37.453-38.818v-252.108c0-.026 0-.051 0-.077s0-.051 0-.077zm-430.552-91.92h393.1c14.032 0 25.452 12.384 25.452 27.266v58.734h-444v-58.734c0-14.882 11.416-27.266 25.448-27.266zm286.364 399.141-20.819-17.262c-2.035-1.687-4.935-1.844-7.14-.385-11.517 7.63-24.363 13.031-37.872 15.923-2.572.611-4.467 2.794-4.711 5.426l-2.619 27.157h-32.925l-2.619-27.157c-.248-2.62-2.153-4.783-4.721-5.359-13.506-2.997-26.357-8.418-37.929-16-2.196-1.418-5.057-1.251-7.073.412l-20.818 17.252-23.194-23.148 17.254-20.812c1.691-2.04 1.844-4.947.377-7.153-7.643-11.495-13.064-24.321-15.982-37.814-.476-2.525-2.557-4.435-5.113-4.695l-26.908-2.621v-32.862l26.908-2.619c2.566-.255 4.669-2.146 5.194-4.67 3.003-13.487 8.415-26.321 15.976-37.886 1.426-2.206 1.251-5.083-.431-7.1l-17.265-20.81 23.189-23.146 20.816 17.261c2.035 1.687 4.933 1.843 7.138.386 11.517-7.632 24.365-13.036 37.875-15.929 2.569-.599 4.466-2.774 4.711-5.4l2.615-27.13h32.925l2.619 27.131c.249 2.617 2.156 4.775 4.722 5.345 13.506 2.994 26.356 8.413 37.928 15.994 2.196 1.417 5.057 1.249 7.073-.415l20.793-17.233 22.864 23.1-17.276 20.837c-1.691 2.04-1.844 4.947-.377 7.153 7.643 11.495 13.064 24.321 15.982 37.814.478 2.524 2.558 4.433 5.113 4.695l26.908 2.622v32.868l-26.538 2.613c-2.563.257-4.663 2.148-5.187 4.67-3.002 13.487-8.414 26.321-15.975 37.886-1.426 2.206-1.252 5.083.43 7.1l17.27 20.814zm106.736-28.141h-71.948l-16.836-20.22c6.38-10.503 11.195-21.88 14.293-33.772l27.7-2.706c3.034-.308 5.32-2.901 5.243-5.95v-43.752c.078-3.056-2.209-5.658-5.25-5.972l-28.144-2.73c-3.015-11.933-7.817-23.342-14.243-33.84l17.973-21.658c1.972-2.372 1.824-5.854-.343-8.05l-30.549-30.868c-2.186-2.209-5.697-2.382-8.091-.4l-21.7 17.99c-10.528-6.383-21.933-11.191-33.853-14.272l-2.728-28.267c-.289-3.097-2.862-5.481-5.972-5.533h-43.821c-3.11.052-5.683 2.436-5.972 5.533l-2.728 28.212c-11.955 3.021-23.384 7.832-33.9 14.27l-21.659-17.944c-2.384-1.974-5.879-1.81-8.068.379l-30.932 30.871c-2.195 2.19-2.36 5.692-.38 8.079l17.976 21.681c-6.379 10.517-11.193 21.906-14.291 33.81l-28.077 2.732c-3.042.316-5.329 2.92-5.248 5.977v43.757c-.078 3.056 2.209 5.658 5.25 5.972l28.144 2.73c3.016 11.906 7.818 23.287 14.243 33.754l-16.855 20.187h-72.334c-14.032 0-25.448-11.936-25.448-26.818v-246.182h444v246.182c0 14.882-11.42 26.818-25.452 26.818z"/><path style="fill:#65c9ff;" d="m121.31 90.756c14.869 0 26.966-12.558 26.966-27.994s-12.1-27.994-26.966-27.994-26.966 12.558-26.966 27.994 12.097 27.994 26.966 27.994zm0-43.988c8.252 0 14.966 7.175 14.966 15.994s-6.714 15.994-14.966 15.994-14.966-7.175-14.966-15.994 6.714-15.994 14.966-15.994z"/><path style="fill:#65c9ff;" d="m189.448 90.756c14.869 0 26.966-12.558 26.966-27.994s-12.1-27.994-26.966-27.994-26.966 12.558-26.966 27.994 12.097 27.994 26.966 27.994zm0-43.988c8.252 0 14.966 7.175 14.966 15.994s-6.714 15.994-14.966 15.994-14.966-7.175-14.966-15.994 6.718-15.994 14.966-15.994z"/><path style="fill:#65c9ff;" d="m53.172 90.756c14.869 0 26.966-12.558 26.966-27.994s-12.1-27.994-26.966-27.994-26.966 12.558-26.966 27.994 12.094 27.994 26.966 27.994zm0-43.988c8.252 0 14.966 7.175 14.966 15.994s-6.714 15.994-14.966 15.994-14.966-7.175-14.966-15.994 6.714-15.994 14.966-15.994z"/><path style="fill:#65c9ff;" d="m234.031 211.779c-51.749.07-93.644 42.077-93.574 93.826s42.077 93.643 93.826 93.574c51.7-.07 93.574-42 93.574-93.7-.092-51.76-42.066-93.677-93.826-93.7zm0 175.39c-45.122-.07-81.643-36.704-81.574-81.826.07-45.122 36.704-81.643 81.826-81.574 45.074.07 81.577 36.63 81.574 81.705-.087 45.134-36.692 81.68-81.826 81.695z"/><path style="fill:#65c9ff;" d="m215.612 272.293c-1.998-2.64-5.758-3.162-8.4-1.167l-38.782 29.326c-2.643 1.999-3.165 5.762-1.166 8.405.333.441.726.833 1.166 1.166l38.782 29.326c2.667 1.966 6.424 1.398 8.39-1.27 1.932-2.621 1.421-6.306-1.153-8.301l-32.453-24.54 32.449-24.538c2.644-1.998 3.167-5.761 1.169-8.404-.001-.001-.001-.002-.002-.003z"/><path style="fill:#65c9ff;" d="m252.451 272.293c-1.995 2.642-1.473 6.402 1.167 8.4l32.453 24.541-32.453 24.54c-2.667 1.966-3.236 5.722-1.27 8.39s5.722 3.236 8.39 1.27c.039-.029.078-.059.117-.088l38.782-29.326c2.643-1.999 3.165-5.762 1.166-8.405-.333-.441-.726-.833-1.166-1.166l-38.782-29.326c-2.644-1.998-6.407-1.474-8.404 1.17z"/><path style="fill:#65c9ff;" d="m241.513 255.806c-3.276-.496-6.334 1.759-6.83 5.035l-13.239 87.47c-.497 3.276 1.756 6.335 5.033 6.832 3.276.497 6.335-1.756 6.832-5.033l13.239-87.47c.498-3.276-1.753-6.336-5.029-6.834-.002.001-.004 0-.006 0z"/></svg>